<svg xmlns="http://www.w3.org/2000/svg" xmlns:svg="http://www.w3.org/2000/svg" id="svg8" width="174.788" height="192.036" version="1.1" viewBox="0 0 46.246 50.81"><title id="title925">Medplum Logo</title><metadata id="metadata5"/><g id="layer1" transform="translate(-9.8343898,-21.506486)"><g id="g923" transform="matrix(0.10348183,0,0,0.10348183,7.5474414,21.506486)"><path id="path900" fill="#ad7136" d="m 282,67 c 6,-16 16,-29 29,-40 L 289,0 c -22,17 -37,41 -43,68 l 17,23 z"/><path id="path902" fill="#946af9" d="m 311,63 c -17,0 -33,4 -48,11 -16,-7 -32,-11 -49,-11 -87,0 -158,96 -158,214 0,118 71,214 158,214 17,0 33,-4 49,-11 15,7 31,11 48,11 87,0 158,-96 158,-214 C 469,159 398,63 311,63 Z"/><path id="path904" fill="#7857c5" d="m 231,489 -17,2 C 127,491 56,395 56,277 56,159 127,63 214,63 l 17,1 c -39,12 -70,102 -70,213 0,111 31,201 70,212 z"/><path id="path906" fill="#40bc26" d="M 207,220 A 176,176 0 0 1 30,263 176,176 0 0 1 251,43 l 1,5 c 17,59 2,125 -45,172 z"/><path id="path908" fill="#33961e" d="M 252,48 A 421,421 0 0 0 57,270 L 30,263 A 176,176 0 0 1 251,43 Z"/></g></g></svg>